<svg xmlns="http://www.w3.org/2000/svg" width="145" height="67" fill="none"><path fill="#D46301" d="M37.424 40H5.758S0 40 0 36.667v-8.334C0 25 5.758 25 5.758 25h31.666v15Z"/><path fill="#E1E8ED" d="M35 25h45v15H35V25Z"/><path fill="#505050" d="M91.25 25H80v15h11.25S95 40 95 36.667v-8.334C95 25 91.25 25 91.25 25Z"/><path fill="#D46301" d="m122.224 37.102 6.491-30.995s1.18-5.635 4.442-4.952l8.157 1.708c3.262.683 2.082 6.319 2.082 6.319l-6.49 30.994-14.682-3.074Z"/><path fill="#E1E8ED" d="m117 52 5-15 15 3-3.5 10 6 5.5-6 6h-18l7.5-6-6-3.5Z"/><path fill="#505050" d="M114.001 64.5c-1.2-3.2.5-3.334 1.5-3 5.166-.834 16-2 18 0 2.5 2.5 0 4-1 4.5s-17 2.5-18.5-1.5Z"/></svg>