<svg xmlns="http://www.w3.org/2000/svg" width="94" height="105" fill="none"><path fill="#C94F11" stroke="#fff" stroke-width="6" d="M15.974 33.161C31.756 5.413 42.3 3 47.088 3c4.764 0 15.107 2.391 30.903 30.161 9.2 16.176 12.806 28.46 13 37.721.193 9.134-2.923 15.438-7.55 19.908-4.719 4.56-11.206 7.393-17.945 9.07-6.714 1.672-13.447 2.14-18.408 2.14-4.96 0-11.707-.468-18.442-2.14-6.76-1.678-13.276-4.512-18.022-9.075-4.653-4.473-7.791-10.778-7.617-19.909.176-9.257 3.768-21.54 12.967-37.715Z"/></svg>