<svg xmlns="http://www.w3.org/2000/svg" width="234" height="40" fill="none"><path fill="#505050" d="M63.565 0v39.652h43.941V0H63.565Z"/><path fill="#303030" d="M107.506 3.358v32.937h2.386V3.358h-2.386Z"/><path fill="#3E4042" d="M63.565 0v9.144h43.941V0H63.565Z"/><path fill="#D46301" d="M70.011 0v39.652h6.722V0H70.01Z"/><path fill="#C25118" d="M70.011 0v9.144h6.722V0H70.01Z"/><path fill="#D46301" d="M60.89 3.358v32.937h2.675V3.358H60.89Z"/><path fill="#D46301" d="M62.02 11.896v15.86H13.98l-1.976-2.236V14.06l1.976-2.164h48.04Z"/><path fill="#A54C00" d="M42.014 11.896v15.86h2v-15.86h-2Z"/><path fill="#A54C00" d="M28.009 11.896v15.86h2v-15.86h-2Z"/><path fill="#D46301" d="M6.002 11.91C4.196 12.147 0 19.825 0 19.825s4.196 7.678 6.002 7.916c1.806.238 6.002-2.61 6.002-2.61V14.52s-4.196-2.847-6.002-2.612Z"/><path fill="#505050" d="M109 0h8v40h-8z"/><path fill="#303030" d="M117 10h117v20H117z"/></svg>