<svg xmlns="http://www.w3.org/2000/svg" width="140" height="163" fill="none"><g clip-path="url(#a)"><path fill="#fff" d="M85.02 11.34 19.294 30.656C9.645 33.492 4.122 43.613 6.958 53.26l27.049 92.034c2.835 9.649 12.956 15.171 22.604 12.336l65.728-19.318c9.648-2.835 15.171-12.956 12.335-22.604l-27.049-92.034c-2.836-9.649-12.956-15.172-22.604-12.336Z"/><path fill="#D36414" d="M88.735 24.035a4.99 4.99 0 0 1 6.183 3.374l27.045 92.019a4.99 4.99 0 0 1-3.374 6.183l-65.712 19.313a4.99 4.99 0 0 1-6.184-3.374l-27.04-92.003a4.99 4.99 0 0 1 3.375-6.184L88.74 24.051m-3.73-12.692L19.298 30.672C9.642 33.493 4.121 43.61 6.963 53.277l27.044 92.018c2.837 9.652 12.953 15.172 22.604 12.336l65.712-19.313c9.652-2.837 15.172-12.953 12.336-22.605l-27.045-92.018c-2.836-9.652-12.953-15.172-22.604-12.336Z"/><path fill="#303030" d="M20.243 23.637 81.35 5.677l3.684 12.535-61.106 17.96-3.684-12.535Z"/><path fill="#303030" d="M81.416 42.22 39.927 54.414a6.14 6.14 0 1 0 3.463 11.782l41.49-12.193a6.14 6.14 0 0 0-3.464-11.783Z"/><path fill="#303030" d="M89.704 70.422 48.215 82.617A6.14 6.14 0 0 0 51.678 94.4l41.49-12.194a6.14 6.14 0 1 0-3.464-11.782Z"/><path fill="#303030" d="M97.993 98.625 56.505 110.82a6.14 6.14 0 1 0 3.462 11.782l41.489-12.193a6.14 6.14 0 0 0-3.463-11.783Z"/></g><defs><clipPath id="a"><path fill="#fff" d="M0 29.586 100.667 0 139.81 133.18 39.14 162.765z"/></clipPath></defs></svg>