<svg xmlns="http://www.w3.org/2000/svg" width="27" height="21" fill="none"><path fill="#C94F11" d="m25.432.696-2.944 8.896c1.195.299 2.197.939 3.008 1.92.81.981 1.216 2.155 1.216 3.52 0 1.621-.576 2.987-1.728 4.096-1.11 1.11-2.517 1.664-4.224 1.664-1.707 0-3.157-.555-4.352-1.664-1.152-1.11-1.728-2.475-1.728-4.096 0-.47.021-.875.064-1.216.085-.384.235-.79.448-1.216L20.632.696h4.8Zm-14.4 0L8.088 9.592c1.195.299 2.197.939 3.008 1.92.81.981 1.216 2.155 1.216 3.52 0 1.621-.576 2.987-1.728 4.096-1.11 1.11-2.539 1.664-4.288 1.664-1.664 0-3.093-.555-4.288-1.664C.856 18.018.28 16.653.28 15.032c0-.47.021-.875.064-1.216.085-.384.235-.79.448-1.216L6.232.696h4.8Z"/></svg>