<svg xmlns="http://www.w3.org/2000/svg" width="406" height="627" fill="none"><path fill="#D0D0D0" d="M65.01 269.51C108.49 356.484 39.913 440.428.19 471.528c15.051-.756 63.611-6.131 137.434-21.587 168.392-40.922-9.701-187.304-55.356-299.093-45.655-111.79 91.249-129.507 87.277-140.585C165.573-.815 111.303-9.363 64.706 27.406c-46.597 36.77-54.043 133.386.305 242.104Z"/><path fill="#D0D0D0" d="M268.937 595.731c-48.156-40.954-130.905-77.703-172.99-47.411 17.448-113.028 264.922 82.754 234.069-63.021-13.306-62.871 76.175-108.85 65.617-98.315-10.557 10.535-1.732 86.096 8.834 136.738 10.566 50.641-39.882 153.352-135.53 72.009Z"/></svg>