<svg xmlns="http://www.w3.org/2000/svg" width="103" height="103" fill="none"><g clip-path="url(#a)"><path fill="#303030" d="M71.558 30.649a3.5 3.5 0 0 1-2.843-.47l-4.818-3.239a3.5 3.5 0 0 1 3.876-5.821l1.28.853 2.569-6.233a3.5 3.5 0 0 1 6.447 2.694l-4.193 10.182a3.5 3.5 0 0 1-2.216 2.007l-.102.027Zm20.03 35.397a3.5 3.5 0 0 0-4.287-2.475l-23.665 6.341a3.5 3.5 0 1 0 1.811 6.762l23.665-6.341a3.5 3.5 0 0 0 2.475-4.287Zm-3.624-13.523a3.5 3.5 0 0 0-4.287-2.475L60.012 56.39a3.5 3.5 0 0 0 1.812 6.762l23.665-6.341a3.5 3.5 0 0 0 2.475-4.287Z"/><path fill="#D46301" d="M50.646 26.976a78.047 78.047 0 0 1-12.098-7.013 3.5 3.5 0 0 0-5.404 3.767l9.747 36.377a15.75 15.75 0 1 0 10.15 10.832L42.225 30.573a45.183 45.183 0 0 0 5.88 2.881 6.616 6.616 0 0 1 4.834 8.706 3.506 3.506 0 0 0 6.882 1.345 13.51 13.51 0 0 0-9.175-16.529Z"/></g><defs><clipPath id="a"><path fill="#fff" d="M0 21.74 81.138 0l21.74 81.138-81.137 21.74z"/></clipPath></defs></svg>