<svg xmlns="http://www.w3.org/2000/svg" width="160" height="196" fill="none"><g clip-path="url(#a)"><path fill="#D46301" d="m10.087 160.873 82.991 31.378c3.733 1.412 7.841-.82 8.661-4.706l32.408-153.502c.661-3.13-1.07-6.279-4.077-7.416L91.925 12.205c-3.006-1.137-6.388.079-7.963 2.863L6.706 151.614c-1.956 3.456-.352 7.847 3.38 9.259Z"/><path fill="#A54C00" d="m101.739 187.545 32.408-153.502c.661-3.13-1.071-6.28-4.077-7.416l-18.581-7.025-59.415 157.146 41.005 15.503c3.733 1.412 7.84-.82 8.66-4.706Z"/><path fill="#ECF0F1" d="m107.932 45.89-12.149-4.594-22.852 60.441 12.15 4.593 22.851-60.44Z"/><path fill="#BDC3C7" d="m107.932 45.89-5.583-2.112-22.852 60.441 5.583 2.111 22.852-60.44Z"/><path fill="#303030" d="M78.799 104.583a2.754 2.754 0 0 1-1.65-1.723L51.404 24.046a2.732 2.732 0 0 1 1.765-3.453c1.446-.463 3 .328 3.471 1.77l25.744 78.815a2.732 2.732 0 0 1-1.765 3.452 2.753 2.753 0 0 1-1.821-.047Z"/><path fill="#303030" d="M55.639 41.19c-3.452-1.305-5.203-5.16-3.905-8.594 1.299-3.433 5.162-5.165 8.613-3.86 3.451 1.304 5.203 5.16 3.905 8.593-1.299 3.434-5.162 5.166-8.613 3.86Zm2.77-7.326a1.18 1.18 0 0 0-1.52.681 1.18 1.18 0 0 0 .688 1.517 1.18 1.18 0 0 0 1.52-.682 1.18 1.18 0 0 0-.689-1.516Z"/></g><defs><clipPath id="a"><path fill="#fff" d="m59.825.068 99.4 37.583-59.553 157.512-99.4-37.582z"/></clipPath></defs></svg>