<svg xmlns="http://www.w3.org/2000/svg" width="233" height="30" fill="none"><path fill="#FFE" d="M4.62 4.26C4.62 1.907 6.517 0 8.858 0c2.34 0 4.237 1.907 4.237 4.26v6.39c0 2.353-1.897 4.26-4.237 4.26S4.62 13.003 4.62 10.65V4.26Z"/><path fill="#FFE" fill-rule="evenodd" d="M1.442 10.65c.585 0 1.06.477 1.06 1.065 0 1.695.67 3.32 1.861 4.518a6.34 6.34 0 0 0 4.495 1.872 6.34 6.34 0 0 0 4.494-1.872 6.407 6.407 0 0 0 1.862-4.518c0-.588.474-1.065 1.059-1.065s1.06.477 1.06 1.065c0 2.26-.893 4.427-2.483 6.024a8.452 8.452 0 0 1-5.992 2.496 8.452 8.452 0 0 1-5.993-2.496l.75-.753-.75.753a8.543 8.543 0 0 1-2.482-6.024c0-.588.474-1.065 1.06-1.065Z" clip-rule="evenodd"/><path fill="#FFE" d="M6.74 20.235c0-1.177.948-2.13 2.118-2.13s2.119.953 2.119 2.13v6.39c0 1.176-.949 2.13-2.119 2.13a2.124 2.124 0 0 1-2.119-2.13v-6.39Z"/><path fill="#FFE" d="M16.273 27.69c0 1.176-3.32 2.13-7.415 2.13-4.096 0-7.416-.954-7.416-2.13 0-1.177 3.32-2.13 7.416-2.13 4.095 0 7.415.953 7.415 2.13Z"/><rect width="173.733" height="29.82" x="25.808" fill="#FFE" rx="14.91"/><path fill="#FFE" d="M231.439 4.2c.772-.388 1.64.321 1.414 1.156l-5.346 19.704a1 1 0 0 1-1.632.484l-6.639-5.944a1 1 0 0 1-.061-1.431l.984-1.044c.824-.875-.312-2.193-1.298-1.507l-2.833 1.968a1 1 0 0 1-.808.15l-4.567-1.116c-.903-.221-1.042-1.448-.211-1.865L231.439 4.2Z"/></svg>