<svg xmlns="http://www.w3.org/2000/svg" width="31" height="57" fill="none"><path fill="#ED5A3A" d="M0 56.8h30.703V0H0z"/><path fill="#CB4629" d="M0 24.562h30.703V0H0z"/><circle cx="6.579" cy="6.579" r="6.079" stroke="#FFE" transform="matrix(1 0 0 -1 8.772 48.028)"/><path stroke="#E7E7DB" d="M21.5 11.5c0-2.686-2.605-5-6-5s-6 2.314-6 5 2.605 5 6 5 6-2.314 6-5Z"/><path fill="#FFE" d="M15.5 46.917a5.423 5.423 0 0 0 5.417-5.417 5.423 5.423 0 0 0-5.417-5.417v10.834Zm0 1.083a6.5 6.5 0 1 1 0-13 6.5 6.5 0 0 1 0 13Z"/></svg>